<svg xmlns="http://www.w3.org/2000/svg" width="200" height="198.83" class="icon" version="1.1" viewBox="0 0 1030 1024"><path fill="#fff" d="M1024.83027 98.843676V0h-98.843675v32.947892H596.514595V0H497.670919v98.843676h98.843676V65.895784h55.697297c-53.358703 35.438703-88.645189 96.020757-88.645189 164.739459H102.303135c-27.246703 0-49.421838 22.168216-49.421838 49.414919V486.4c-15.007135-12.654703-27.592649-9.568865-32.435892-7.479351C15.339243 481.127784 3.459459 488.64173 3.459459 510.685405v461.256649c0 27.246703 22.175135 49.428757 49.421838 49.428757h494.21146c21.559351 0 29.004108-10.675892 31.543351-17.034379 2.518486-6.379243 4.41427-19.248432-11.305513-34.020324l-15.761298-14.841081h423.832217c27.246703 0 49.421838-22.175135 49.421837-49.421838V280.050162c0-27.246703-22.175135-49.421838-49.421837-49.421838h-16.473946c0-68.704865-35.286486-129.293838-88.64519-164.73254h55.697298v32.947892h98.850594z m-65.902702-65.895784h32.95481v32.947892h-32.95481V32.947892zM563.566703 65.895784h-32.947892V32.947892h32.947892v32.947892zM135.251027 329.472a16.473946 16.473946 0 1 0 0-32.947892 16.473946 16.473946 0 0 0 0 32.947892z m65.895784 0a16.473946 16.473946 0 1 0 0-32.947892 16.473946 16.473946 0 0 0 0 32.947892z m65.888865 0a16.473946 16.473946 0 1 0 0-32.947892 16.473946 16.473946 0 0 0 0 32.947892z m-181.206487-49.421838a16.501622 16.501622 0 0 1 16.473946-16.473946H566.382703c0.013838 0.131459 0.200649 0.166054 0.297513 0.242162a195.763892 195.763892 0 0 0 47.754379 98.594595h-528.605406V280.050162z m32.947892 625.996108h212.03027L118.777081 706.490811v199.555459z m32.947892-123.302054l96.006919 90.361081H151.724973v-90.361081zM52.881297 988.416a16.480865 16.480865 0 0 1-16.467027-16.467027v-16.473946h32.940973v-32.954811H36.41427v-32.940973h32.940973v-32.954811H36.41427v-32.940973h32.940973v-32.95481H36.41427v-32.940973h32.940973v-32.954811H36.41427v-32.934054h32.940973v-32.947892H36.41427v-32.954811h32.940973v-32.940973H36.41427V515.860757l172.343352 162.214054 49.698594 46.764973 280.057081 263.576216H52.881297zM151.731892 579.148108V461.263568H514.144865V691.891892H271.526054L151.724973 579.148108z m840.150486 326.918919a16.480865 16.480865 0 0 1-16.467027 16.453189H516.566486l-210.037621-197.680432h240.563892V428.315676H118.777081v119.808l-32.947892-30.996757V395.360865h567.116108c3.182703 2.075676 6.144 4.400432 9.458162 6.310054v18.598054c-9.928649 7.527784-16.473946 19.338378-16.473945 32.733405 0 9.305946 3.217297 17.809297 8.454918 24.70746a40.793946 40.793946 0 0 0-8.454918 24.735135 41.236757 41.236757 0 0 0 41.188324 41.181405h148.258594a41.236757 41.236757 0 0 0 41.181406-41.181405 40.717838 40.717838 0 0 0-8.448-24.714378 40.710919 40.710919 0 0 0 8.448-24.714379c0-13.388108-6.538378-25.205622-16.467027-32.726486v-18.598054c3.307243-1.909622 6.268541-4.234378 9.451243-6.316973h122.333405v510.685405zM687.117838 494.204541h148.258594a8.240432 8.240432 0 0 1 0 16.473945H687.117838a8.240432 8.240432 0 0 1 0-16.467027z m-8.233514-41.181406c0-4.54573 3.687784-8.233514 8.233514-8.233513h148.258594a8.240432 8.240432 0 0 1 0 16.467027H687.117838a8.233514 8.233514 0 0 1-8.233514-8.233514z m277.227244-189.44h19.289946a16.501622 16.501622 0 0 1 16.480864 16.467027v82.36973H908.038919a195.687784 195.687784 0 0 0 47.311567-96.304433 11.96973 11.96973 0 0 0 0.761082-2.532324z m-30.124973-32.954811c0 62.062703-34.428541 118.237405-89.876757 146.598054l-8.96 4.601081v30.014271h-49.421838V294.185514c28.332973-7.36173 49.421838-32.947892 49.421838-63.55719 0-36.338162-29.557622-65.888865-65.902703-65.888865-36.338162 0-65.888865 29.550703-65.888865 65.888865 0 30.616216 21.081946 56.195459 49.414919 63.55719v117.656216h-49.414919v-30.014271l-8.96-4.601081c-55.455135-28.367568-89.883676-84.535351-89.883675-146.598054 0-90.831568 73.900973-164.732541 164.739459-164.73254 90.831568 0 164.732541 73.900973 164.732541 164.739459z m-164.73946 32.954811a32.982486 32.982486 0 0 1-32.940973-32.954811 32.982486 32.982486 0 0 1 32.940973-32.940973 32.975568 32.975568 0 0 1 32.947892 32.940973 32.982486 32.982486 0 0 1-32.947892 32.954811z m-181.206486 329.472h378.893837v32.947892H580.040649v-32.947892z m0 65.895784h378.893837V691.891892H580.040649V658.957838z m0 65.888865h378.893837v32.947892H580.040649v-32.947892z m0 65.888865h378.893837v32.95481H580.040649v-32.95481z"/></svg>