<?xml version="1.0" standalone="no"?><!DOCTYPE svg PUBLIC "-//W3C//DTD SVG 1.1//EN" "http://www.w3.org/Graphics/SVG/1.1/DTD/svg11.dtd"><svg class="icon" width="200px" height="200.00px" viewBox="0 0 1024 1024" version="1.1" xmlns="http://www.w3.org/2000/svg"><path fill="#ffffff" d="M938.666667 1024 85.333333 1024c-47.061333 0-85.333333-38.272-85.333333-85.333333L0 298.666667c0-47.061333 38.272-85.333333 85.333333-85.333333l426.666667 0c11.776 0 21.333333 9.557333 21.333333 21.333333s-9.557333 21.333333-21.333333 21.333333L85.333333 256c-23.530667 0-42.666667 19.136-42.666667 42.666667l0 640c0 23.530667 19.136 42.666667 42.666667 42.666667l853.333333 0c23.530667 0 42.666667-19.136 42.666667-42.666667L981.333333 298.666667c0-23.530667-19.136-42.666667-42.666667-42.666667-11.776 0-21.333333-9.557333-21.333333-21.333333s9.557333-21.333333 21.333333-21.333333c47.061333 0 85.333333 38.272 85.333333 85.333333l0 640C1024 985.728 985.728 1024 938.666667 1024zM938.666667 938.666667 213.333333 938.666667 213.333333 298.666667l213.333333 0c11.776 0 21.333333 9.557333 21.333333 21.333333s-9.557333 21.333333-21.333333 21.333333l-170.666667 0 0 554.666667 640 0L896 341.333333l-42.666667 0c-11.776 0-21.333333-9.557333-21.333333-21.333333s9.557333-21.333333 21.333333-21.333333l85.333333 0L938.666667 938.666667zM170.666667 896 0 896 0 341.333333l170.666667 0L170.666667 896zM42.666667 853.333333l85.333333 0L128 384 42.666667 384 42.666667 853.333333zM372.053333 587.946667l56.298667-177.002667L812.181333 27.136c32.234667-32.256 88.448-32.256 120.682667 0 33.28 33.28 33.28 87.402667 0 120.661333L549.056 531.626667 372.053333 587.946667zM465.877333 433.770667l-28.16 88.490667 88.490667-28.16L902.698667 117.653333c16.64-16.64 16.64-43.690667 0-60.330667-16.128-16.128-44.224-16.128-60.352 0L465.877333 433.770667zM21.333333 512l128 0 0 42.666667-128 0 0-42.666667ZM21.333333 682.666667l128 0 0 42.666667-128 0 0-42.666667ZM887.594667 184.234667c-5.461333 0-10.922667-2.090667-15.082667-6.250667l-90.517333-90.517333c-8.341333-8.341333-8.341333-21.824 0-30.165333s21.824-8.341333 30.165333 0l90.517333 90.517333c8.341333 8.341333 8.341333 21.824 0 30.165333C898.517333 182.165333 893.056 184.234667 887.594667 184.234667zM766.933333 304.917333c-5.461333 0-10.922667-2.090667-15.082667-6.250667L661.333333 208.149333c-8.341333-8.341333-8.341333-21.824 0-30.165333s21.824-8.341333 30.165333 0l90.517333 90.517333c8.341333 8.341333 8.341333 21.824 0 30.165333C777.834667 302.826667 772.394667 304.917333 766.933333 304.917333zM537.642667 534.208c-5.461333 0-10.922667-2.090667-15.082667-6.250667l-90.517333-90.517333c-8.341333-8.341333-8.341333-21.824 0-30.165333s21.824-8.341333 30.165333 0l90.517333 90.517333c8.341333 8.341333 8.341333 21.824 0 30.165333C548.544 532.117333 543.104 534.208 537.642667 534.208zM362.666667 618.666667c-5.461333 0-10.922667-2.090667-15.082667-6.250667-8.341333-8.341333-8.341333-21.824 0-30.165333l42.218667-42.218667c8.341333-8.341333 21.824-8.341333 30.165333 0s8.341333 21.824 0 30.165333l-42.218667 42.218667C373.589333 616.576 368.128 618.666667 362.666667 618.666667z" /></svg>