<?xml version="1.0" standalone="no"?><!DOCTYPE svg PUBLIC "-//W3C//DTD SVG 1.1//EN" "http://www.w3.org/Graphics/SVG/1.1/DTD/svg11.dtd"><svg class="icon" width="200px" height="200.00px" viewBox="0 0 1024 1024" version="1.1" xmlns="http://www.w3.org/2000/svg"><path fill="#ffffff" d="M706.56 368.469333a65.024 65.024 0 1 0-65.024-65.024 65.194667 65.194667 0 0 0 65.024 65.024z m0-95.914666a30.890667 30.890667 0 1 1-30.890667 30.890666A30.890667 30.890667 0 0 1 706.56 273.066667z"  /><path fill="#ffffff" d="M955.733333 761.514667h-41.301333V323.072a40.448 40.448 0 0 0-40.448-40.277333h-29.696a335.530667 335.530667 0 0 0 7.168-79.872 46.933333 46.933333 0 0 0-44.544-44.544 341.333333 341.333333 0 0 0-256 105.642666L478.890667 238.933333a17.066667 17.066667 0 0 0-19.285334 6.314667l-26.453333 36.864H150.016a40.448 40.448 0 0 0-40.448 40.277333v439.125334H68.266667a17.066667 17.066667 0 0 0-17.066667 17.066666v32.938667a54.101333 54.101333 0 0 0 54.101333 54.101333h813.397334A54.101333 54.101333 0 0 0 972.8 811.52v-32.938667a17.066667 17.066667 0 0 0-17.066667-17.066666z m-81.749333-443.733334a6.314667 6.314667 0 0 1 6.314667 6.144v437.589334h-36.010667V381.610667a17.066667 17.066667 0 0 0-17.066667-17.066667h-11.264a338.944 338.944 0 0 0 19.285334-47.616z m-325.290667 443.733334v-4.778667a108.373333 108.373333 0 0 0-46.592-89.088l66.218667-118.101333c4.096 0 7.850667 2.048 11.946667 2.730666a17.066667 17.066667 0 0 0 9.386666-1.365333l8.533334-3.754667-3.754667 90.282667a17.066667 17.066667 0 0 0 9.045333 15.701333 17.066667 17.066667 0 0 0 17.066667-1.024l142.336-102.4a17.066667 17.066667 0 0 0 6.314667-19.456l-24.405334-71.509333a343.722667 343.722667 0 0 0 51.2-60.757333h13.653334v363.52z m-334.848 0V501.930667a67.072 67.072 0 0 1 50.005334 64.682666 75.946667 75.946667 0 0 1-1.365334 13.824 17.066667 17.066667 0 0 0 7.338667 17.066667A43.008 43.008 0 0 1 290.133333 634.368a42.325333 42.325333 0 0 1-5.802666 20.992c-1.877333 1.365333-3.754667 2.389333-5.461334 3.754667a17.066667 17.066667 0 0 0-2.730666 23.552 17.066667 17.066667 0 0 0 13.141333 6.144 17.066667 17.066667 0 0 0 10.922667-4.096c2.048-1.536 4.096-3.072 6.314666-4.437334a41.984 41.984 0 0 1 49.834667 6.485334 107.52 107.52 0 0 0-13.312 19.626666 17.066667 17.066667 0 0 0 7.338667 23.04 18.261333 18.261333 0 0 0 7.850666 1.877334 17.066667 17.066667 0 0 0 15.189334-9.216 73.898667 73.898667 0 0 1 17.066666-21.674667 74.752 74.752 0 0 1 124.586667 55.808v4.778667z m141.141334-362.837334a14.848 14.848 0 0 0 1.877333 7.509334 17.066667 17.066667 0 0 0 15.018667 8.874666l90.282666-3.584-3.754666 8.533334a16.042667 16.042667 0 0 0-1.365334 9.386666 90.794667 90.794667 0 0 0 2.730667 11.776l-167.424 94.037334a102.4 102.4 0 0 0-79.189333-68.266667v-68.266667z m85.333333 249.002667a109.397333 109.397333 0 0 0-57.856 17.066667 76.970667 76.970667 0 0 0-58.88-23.04 49.152 49.152 0 0 0 0-6.997334 76.8 76.8 0 0 0-26.112-57.856v-4.778666l173.909333-97.792a129.365333 129.365333 0 0 0 9.386667 15.530666l-75.605333 52.906667a17.066667 17.066667 0 0 0 9.728 31.061333 17.066667 17.066667 0 0 0 9.898666-3.072l78.506667-54.954666a149.845333 149.845333 0 0 0 32.256 22.869333l-64 114.176a109.397333 109.397333 0 0 0-31.573333-4.266667z m278.016-164.181333l15.530667 46.592-103.424 73.898666 2.901333-72.362666 17.066667-7.338667a347.136 347.136 0 0 0 67.584-40.789333z m88.064-290.133334a11.946667 11.946667 0 0 1 11.264 11.434667 306.005333 306.005333 0 0 1-182.101333 288.256L580.266667 517.632a112.298667 112.298667 0 0 1-88.405334-88.405333l24.405334-54.784a307.2 307.2 0 0 1 289.792-181.930667z m-326.485333 82.602667l46.592 16.042667a347.136 347.136 0 0 0-40.789334 68.266666l-7.338666 16.213334-72.362667 2.901333z m-336.213334 47.104a6.314667 6.314667 0 0 1 6.314667-6.144H409.6l-34.133333 47.616H196.778667a17.066667 17.066667 0 0 0-17.066667 17.066667v379.904H143.701333zM85.333333 811.52v-15.872h269.482667v17.066667a51.2 51.2 0 0 0 3.584 18.773333H105.301333A19.968 19.968 0 0 1 85.333333 811.52z m322.048 19.968a18.432 18.432 0 0 1-18.432-18.432v-17.066667h246.101334v17.066667a18.432 18.432 0 0 1-18.432 18.432zM938.666667 811.52a19.968 19.968 0 0 1-19.968 19.968H665.6a51.2 51.2 0 0 0 3.584-18.432v-17.066667H938.666667z"  /><path fill="#ffffff" d="M478.890667 580.266667a17.066667 17.066667 0 0 0-24.064 0L426.666667 606.378667a17.066667 17.066667 0 0 0-0.853334 24.064 17.066667 17.066667 0 0 0 12.458667 5.461333 17.066667 17.066667 0 0 0 11.776-4.778667L477.866667 603.989333a17.066667 17.066667 0 0 0 1.024-23.722666z"  /></svg>